Wavefont-w400r100a1.ufo
<glyph name="_2" format="2">
	<unicode hex="0102"/>
	<unicode hex="0062"/>
	<advance width="400"/>
	<outline>
		<component base="cap" yOffset="980"/>
		<component base="cap" yOffset="600"/>
		<contour>
			<point x="0" y="1180" type="line"/>
			<point x="0" y="800" type="line"/>
			<point x="400" y="800" type="line"/>
			<point x="400" y="1180" type="line"/>
		</contour>
	</outline>
</glyph>
<glyph name="_4" format="2">
	<unicode hex="0104"/>
	<unicode hex="0063"/>
	<advance width="400"/>
	<outline>
		<component base="cap" yOffset="960"/>
		<component base="cap" yOffset="600"/>
		<contour>
			<point x="0" y="1160" type="line"/>
			<point x="0" y="800" type="line"/>
			<point x="400" y="800" type="line"/>
			<point x="400" y="1160" type="line"/>
		</contour>
	</outline>
</glyph>
<glyph name="_6" format="2">
	<unicode hex="0106"/>
	<unicode hex="0064"/>
	<advance width="400"/>
	<outline>
		<component base="cap" yOffset="940"/>
		<component base="cap" yOffset="600"/>
		<contour>
			<point x="0" y="1140" type="line"/>
			<point x="0" y="800" type="line"/>
			<point x="400" y="800" type="line"/>
			<point x="400" y="1140" type="line"/>
		</contour>
	</outline>
</glyph>
<glyph name="_7" format="2">
	<unicode hex="0107"/>
	<advance width="400"/>
	<outline>
		<component base="cap" yOffset="930"/>
		<component base="cap" yOffset="600"/>
		<contour>
			<point x="0" y="1130" type="line"/>
			<point x="0" y="800" type="line"/>
			<point x="400" y="800" type="line"/>
			<point x="400" y="1130" type="line"/>
		</contour>
	</outline>
</glyph>
<glyph name="_8" format="2">
	<unicode hex="0108"/>
	<unicode hex="0065"/>
	<advance width="400"/>
	<outline>
		<component base="cap" yOffset="920"/>
		<component base="cap" yOffset="600"/>
		<contour>
			<point x="0" y="1120" type="line"/>
			<point x="0" y="800" type="line"/>
			<point x="400" y="800" type="line"/>
			<point x="400" y="1120" type="line"/>
		</contour>
	</outline>
</glyph>
<glyph name="_10" format="2">
	<unicode hex="010A"/>
	<unicode hex="0031"/>
	<unicode hex="0066"/>
	<advance width="400"/>
	<outline>
		<component base="cap" yOffset="900"/>
		<component base="cap" yOffset="600"/>
		<contour>
			<point x="0" y="1100" type="line"/>
			<point x="0" y="800" type="line"/>
			<point x="400" y="800" type="line"/>
			<point x="400" y="1100" type="line"/>
		</contour>
	</outline>
</glyph>
<glyph name="_12" format="2">
	<unicode hex="010C"/>
	<unicode hex="0067"/>
	<advance width="400"/>
	<outline>
		<component base="cap" yOffset="880"/>
		<component base="cap" yOffset="600"/>
		<contour>
			<point x="0" y="1080" type="line"/>
			<point x="0" y="800" type="line"/>
			<point x="400" y="800" type="line"/>
			<point x="400" y="1080" type="line"/>
		</contour>
	</outline>
</glyph>
<glyph name="_13" format="2">
	<unicode hex="010D"/>
	<advance width="400"/>
	<outline>
		<component base="cap" yOffset="870"/>
		<component base="cap" yOffset="600"/>
		<contour>
			<point x="0" y="1070" type="line"/>
			<point x="0" y="800" type="line"/>
			<point x="400" y="800" type="line"/>
			<point x="400" y="1070" type="line"/>
		</contour>
	</outline>
</glyph>
<glyph name="_14" format="2">
	<unicode hex="010E"/>
	<unicode hex="2582"/>
	<unicode hex="0068"/>
	<advance width="400"/>
	<outline>
		<component base="cap" yOffset="860"/>
		<component base="cap" yOffset="600"/>
		<contour>
			<point x="0" y="1060" type="line"/>
			<point x="0" y="800" type="line"/>
			<point x="400" y="800" type="line"/>
			<point x="400" y="1060" type="line"/>
		</contour>
	</outline>
</glyph>
<glyph name="_16" format="2">
	<unicode hex="0110"/>
	<unicode hex="0069"/>
	<advance width="400"/>
	<outline>
		<component base="cap" yOffset="840"/>
		<component base="cap" yOffset="600"/>
		<contour>
			<point x="0" y="1040" type="line"/>
			<point x="0" y="800" type="line"/>
			<point x="400" y="800" type="line"/>
			<point x="400" y="1040" type="line"/>
		</contour>
	</outline>
</glyph>
<glyph name="_17" format="2">
	<unicode hex="0111"/>
	<advance width="400"/>
	<outline>
		<component base="cap" yOffset="830"/>
		<component base="cap" yOffset="600"/>
		<contour>
			<point x="0" y="1030" type="line"/>
			<point x="0" y="800" type="line"/>
			<point x="400" y="800" type="line"/>
			<point x="400" y="1030" type="line"/>
		</contour>
	</outline>
</glyph>
<glyph name="_18" format="2">
	<unicode hex="0112"/>
	<unicode hex="006A"/>
	<advance width="400"/>
	<outline>
		<component base="cap" yOffset="820"/>
		<component base="cap" yOffset="600"/>
		<contour>
			<point x="0" y="1020" type="line"/>
			<point x="0" y="800" type="line"/>
			<point x="400" y="800" type="line"/>
			<point x="400" y="1020" type="line"/>
		</contour>
	</outline>
</glyph>
<glyph name="_19" format="2">
	<unicode hex="0113"/>
	<advance width="400"/>
	<outline>
		<component base="cap" yOffset="810"/>
		<component base="cap" yOffset="600"/>
		<contour>
			<point x="0" y="1010" type="line"/>
			<point x="0" y="800" type="line"/>
			<point x="400" y="800" type="line"/>
			<point x="400" y="1010" type="line"/>
		</contour>
	</outline>
</glyph>
<glyph name="_20" format="2">
	<unicode hex="0114"/>
	<unicode hex="0032"/>
	<unicode hex="006B"/>
	<advance width="400"/>
	<outline>
		<component base="cap" yOffset="800"/>
		<component base="cap" yOffset="600"/>
		<contour>
			<point x="0" y="1000" type="line"/>
			<point x="0" y="800" type="line"/>
			<point x="400" y="800" type="line"/>
			<point x="400" y="1000" type="line"/>
		</contour>
	</outline>
</glyph>
<glyph name="_21" format="2">
	<unicode hex="0115"/>
	<advance width="400"/>
	<outline>
		<component base="cap" yOffset="790"/>
		<component base="cap" yOffset="600"/>
		<contour>
			<point x="0" y="990" type="line"/>
			<point x="0" y="800" type="line"/>
			<point x="400" y="800" type="line"/>
			<point x="400" y="990" type="line"/>
		</contour>
	</outline>
</glyph>
<glyph name="_22" format="2">
	<unicode hex="0116"/>
	<unicode hex="006C"/>
	<advance width="400"/>
	<outline>
		<component base="cap" yOffset="780"/>
		<component base="cap" yOffset="600"/>
		<contour>
			<point x="0" y="980" type="line"/>
			<point x="0" y="800" type="line"/>
			<point x="400" y="800" type="line"/>
			<point x="400" y="980" type="line"/>
		</contour>
	</outline>
</glyph>
<glyph name="_23" format="2">
	<unicode hex="0117"/>
	<advance width="400"/>
	<outline>
		<component base="cap" yOffset="770"/>
		<component base="cap" yOffset="600"/>
		<contour>
			<point x="0" y="970" type="line"/>
			<point x="0" y="800" type="line"/>
			<point x="400" y="800" type="line"/>
			<point x="400" y="970" type="line"/>
		</contour>
	</outline>
</glyph>
<glyph name="_24" format="2">
	<unicode hex="0118"/>
	<unicode hex="006D"/>
	<advance width="400"/>
	<outline>
		<component base="cap" yOffset="760"/>
		<component base="cap" yOffset="600"/>
		<contour>
			<point x="0" y="960" type="line"/>
			<point x="0" y="800" type="line"/>
			<point x="400" y="800" type="line"/>
			<point x="400" y="960" type="line"/>
		</contour>
	</outline>
</glyph>
<glyph name="_25" format="2">
	<unicode hex="0119"/>
	<advance width="400"/>
	<outline>
		<component base="cap" yOffset="750"/>
		<component base="cap" yOffset="600"/>
		<contour>
			<point x="0" y="950" type="line"/>
			<point x="0" y="800" type="line"/>
			<point x="400" y="800" type="line"/>
			<point x="400" y="950" type="line"/>
		</contour>
	</outline>
</glyph>
<glyph name="_26" format="2">
	<unicode hex="011A"/>
	<unicode hex="006E"/>
	<advance width="400"/>
	<outline>
		<component base="cap" yOffset="740"/>
		<component base="cap" yOffset="600"/>
		<contour>
			<point x="0" y="940" type="line"/>
			<point x="0" y="800" type="line"/>
			<point x="400" y="800" type="line"/>
			<point x="400" y="940" type="line"/>
		</contour>
	</outline>
</glyph>
<glyph name="_27" format="2">
	<unicode hex="011B"/>
	<advance width="400"/>
	<outline>
		<component base="cap" yOffset="730"/>
		<component base="cap" yOffset="600"/>
		<contour>
			<point x="0" y="930" type="line"/>
			<point x="0" y="800" type="line"/>
			<point x="400" y="800" type="line"/>
			<point x="400" y="930" type="line"/>
		</contour>
	</outline>
</glyph>
<glyph name="_28" format="2">
	<unicode hex="011C"/>
	<unicode hex="2583"/>
	<unicode hex="006F"/>
	<advance width="400"/>
	<outline>
		<component base="cap" yOffset="720"/>
		<component base="cap" yOffset="600"/>
		<contour>
			<point x="0" y="920" type="line"/>
			<point x="0" y="800" type="line"/>
			<point x="400" y="800" type="line"/>
			<point x="400" y="920" type="line"/>
		</contour>
	</outline>
</glyph>
<glyph name="_29" format="2">
	<unicode hex="011D"/>
	<advance width="400"/>
	<outline>
		<component base="cap" yOffset="710"/>
		<component base="cap" yOffset="600"/>
		<contour>
			<point x="0" y="910" type="line"/>
			<point x="0" y="800" type="line"/>
			<point x="400" y="800" type="line"/>
			<point x="400" y="910" type="line"/>
		</contour>
	</outline>
</glyph>
<glyph name="_30" format="2">
	<unicode hex="011E"/>
	<unicode hex="0033"/>
	<unicode hex="0070"/>
	<advance width="400"/>
	<outline>
		<component base="cap" yOffset="700"/>
		<component base="cap" yOffset="600"/>
		<contour>
			<point x="0" y="900" type="line"/>
			<point x="0" y="800" type="line"/>
			<point x="400" y="800" type="line"/>
			<point x="400" y="900" type="line"/>
		</contour>
	</outline>
</glyph>
<glyph name="_31" format="2">
	<unicode hex="011F"/>
	<advance width="400"/>
	<outline>
		<component base="cap" yOffset="690"/>
		<component base="cap" yOffset="600"/>
		<contour>
			<point x="0" y="890" type="line"/>
			<point x="0" y="800" type="line"/>
			<point x="400" y="800" type="line"/>
			<point x="400" y="890" type="line"/>
		</contour>
	</outline>
</glyph>
<glyph name="_32" format="2">
	<unicode hex="0120"/>
	<unicode hex="0071"/>
	<advance width="400"/>
	<outline>
		<component base="cap" yOffset="680"/>
		<component base="cap" yOffset="600"/>
		<contour>
			<point x="0" y="880" type="line"/>
			<point x="0" y="800" type="line"/>
			<point x="400" y="800" type="line"/>
			<point x="400" y="880" type="line"/>
		</contour>
	</outline>
</glyph>
<glyph name="_33" format="2">
	<unicode hex="0121"/>
	<advance width="400"/>
	<outline>
		<component base="cap" yOffset="670"/>
		<component base="cap" yOffset="600"/>
		<contour>
			<point x="0" y="870" type="line"/>
			<point x="0" y="800" type="line"/>
			<point x="400" y="800" type="line"/>
			<point x="400" y="870" type="line"/>
		</contour>
	</outline>
</glyph>
<glyph name="_35" format="2">
	<unicode hex="0123"/>
	<advance width="400"/>
	<outline>
		<component base="cap" yOffset="650"/>
		<component base="cap" yOffset="600"/>
		<contour>
			<point x="0" y="850" type="line"/>
			<point x="0" y="800" type="line"/>
			<point x="400" y="800" type="line"/>
			<point x="400" y="850" type="line"/>
		</contour>
	</outline>
</glyph>
<glyph name="_36" format="2">
	<unicode hex="0124"/>
	<unicode hex="0073"/>
	<advance width="400"/>
	<outline>
		<component base="cap" yOffset="640"/>
		<component base="cap" yOffset="600"/>
		<contour>
			<point x="0" y="840" type="line"/>
			<point x="0" y="800" type="line"/>
			<point x="400" y="800" type="line"/>
			<point x="400" y="840" type="line"/>
		</contour>
	</outline>
</glyph>
<glyph name="_37" format="2">
	<unicode hex="0125"/>
	<advance width="400"/>
	<outline>
		<component base="cap" yOffset="630"/>
		<component base="cap" yOffset="600"/>
		<contour>
			<point x="0" y="830" type="line"/>
			<point x="0" y="800" type="line"/>
			<point x="400" y="800" type="line"/>
			<point x="400" y="830" type="line"/>
		</contour>
	</outline>
</glyph>
<glyph name="_38" format="2">
	<unicode hex="0126"/>
	<unicode hex="0074"/>
	<advance width="400"/>
	<outline>
		<component base="cap" yOffset="620"/>
		<component base="cap" yOffset="600"/>
		<contour>
			<point x="0" y="820" type="line"/>
			<point x="0" y="800" type="line"/>
			<point x="400" y="800" type="line"/>
			<point x="400" y="820" type="line"/>
		</contour>
	</outline>
</glyph>
<glyph name="_41" format="2">
	<unicode hex="0129"/>
	<advance width="400"/>
	<outline>
		<component base="cap" yOffset="590"/>
		<component base="cap" yOffset="600"/>
		<contour>
			<point x="0" y="790" type="line"/>
			<point x="0" y="800" type="line"/>
			<point x="400" y="800" type="line"/>
			<point x="400" y="790" type="line"/>
		</contour>
	</outline>
</glyph>
<glyph name="_42" format="2">
	<unicode hex="012A"/>
	<unicode hex="2584"/>
	<unicode hex="0076"/>
	<advance width="400"/>
	<outline>
		<component base="cap" yOffset="580"/>
		<component base="cap" yOffset="600"/>
		<contour>
			<point x="0" y="780" type="line"/>
			<point x="0" y="800" type="line"/>
			<point x="400" y="800" type="line"/>
			<point x="400" y="780" type="line"/>
		</contour>
	</outline>
</glyph>
<glyph name="_43" format="2">
	<unicode hex="012B"/>
	<advance width="400"/>
	<outline>
		<component base="cap" yOffset="570"/>
		<component base="cap" yOffset="600"/>
		<contour>
			<point x="0" y="770" type="line"/>
			<point x="0" y="800" type="line"/>
			<point x="400" y="800" type="line"/>
			<point x="400" y="770" type="line"/>
		</contour>
	</outline>
</glyph>
<glyph name="_44" format="2">
	<unicode hex="012C"/>
	<unicode hex="0077"/>
	<advance width="400"/>
	<outline>
		<component base="cap" yOffset="560"/>
		<component base="cap" yOffset="600"/>
		<contour>
			<point x="0" y="760" type="line"/>
			<point x="0" y="800" type="line"/>
			<point x="400" y="800" type="line"/>
			<point x="400" y="760" type="line"/>
		</contour>
	</outline>
</glyph>
<glyph name="_45" format="2">
	<unicode hex="012D"/>
	<advance width="400"/>
	<outline>
		<component base="cap" yOffset="550"/>
		<component base="cap" yOffset="600"/>
		<contour>
			<point x="0" y="750" type="line"/>
			<point x="0" y="800" type="line"/>
			<point x="400" y="800" type="line"/>
			<point x="400" y="750" type="line"/>
		</contour>
	</outline>
</glyph>
<glyph name="_46" format="2">
	<unicode hex="012E"/>
	<unicode hex="0078"/>
	<advance width="400"/>
	<outline>
		<component base="cap" yOffset="540"/>
		<component base="cap" yOffset="600"/>
		<contour>
			<point x="0" y="740" type="line"/>
			<point x="0" y="800" type="line"/>
			<point x="400" y="800" type="line"/>
			<point x="400" y="740" type="line"/>
		</contour>
	</outline>
</glyph>
<glyph name="_47" format="2">
	<unicode hex="012F"/>
	<advance width="400"/>
	<outline>
		<component base="cap" yOffset="530"/>
		<component base="cap" yOffset="600"/>
		<contour>
			<point x="0" y="730" type="line"/>
			<point x="0" y="800" type="line"/>
			<point x="400" y="800" type="line"/>
			<point x="400" y="730" type="line"/>
		</contour>
	</outline>
</glyph>
<glyph name="_48" format="2">
	<unicode hex="0130"/>
	<unicode hex="0079"/>
	<advance width="400"/>
	<outline>
		<component base="cap" yOffset="520"/>
		<component base="cap" yOffset="600"/>
		<contour>
			<point x="0" y="720" type="line"/>
			<point x="0" y="800" type="line"/>
			<point x="400" y="800" type="line"/>
			<point x="400" y="720" type="line"/>
		</contour>
	</outline>
</glyph>
<glyph name="_51" format="2">
	<unicode hex="0133"/>
	<advance width="400"/>
	<outline>
		<component base="cap" yOffset="490"/>
		<component base="cap" yOffset="600"/>
		<contour>
			<point x="0" y="690" type="line"/>
			<point x="0" y="800" type="line"/>
			<point x="400" y="800" type="line"/>
			<point x="400" y="690" type="line"/>
		</contour>
	</outline>
</glyph>
<glyph name="_52" format="2">
	<unicode hex="0134"/>
	<unicode hex="0041"/>
	<advance width="400"/>
	<outline>
		<component base="cap" yOffset="480"/>
		<component base="cap" yOffset="600"/>
		<contour>
			<point x="0" y="680" type="line"/>
			<point x="0" y="800" type="line"/>
			<point x="400" y="800" type="line"/>
			<point x="400" y="680" type="line"/>
		</contour>
	</outline>
</glyph>
<glyph name="_53" format="2">
	<unicode hex="0135"/>
	<advance width="400"/>
	<outline>
		<component base="cap" yOffset="470"/>
		<component base="cap" yOffset="600"/>
		<contour>
			<point x="0" y="670" type="line"/>
			<point x="0" y="800" type="line"/>
			<point x="400" y="800" type="line"/>
			<point x="400" y="670" type="line"/>
		</contour>
	</outline>
</glyph>
<glyph name="_54" format="2">
	<unicode hex="0136"/>
	<unicode hex="0042"/>
	<advance width="400"/>
	<outline>
		<component base="cap" yOffset="460"/>
		<component base="cap" yOffset="600"/>
		<contour>
			<point x="0" y="660" type="line"/>
			<point x="0" y="800" type="line"/>
			<point x="400" y="800" type="line"/>
			<point x="400" y="660" type="line"/>
		</contour>
	</outline>
</glyph>
<glyph name="_55" format="2">
	<unicode hex="0137"/>
	<advance width="400"/>
	<outline>
		<component base="cap" yOffset="450"/>
		<component base="cap" yOffset="600"/>
		<contour>
			<point x="0" y="650" type="line"/>
			<point x="0" y="800" type="line"/>
			<point x="400" y="800" type="line"/>
			<point x="400" y="650" type="line"/>
		</contour>
	</outline>
</glyph>
<glyph name="_56" format="2">
	<unicode hex="0138"/>
	<unicode hex="2585"/>
	<unicode hex="0043"/>
	<advance width="400"/>
	<outline>
		<component base="cap" yOffset="440"/>
		<component base="cap" yOffset="600"/>
		<contour>
			<point x="0" y="640" type="line"/>
			<point x="0" y="800" type="line"/>
			<point x="400" y="800" type="line"/>
			<point x="400" y="640" type="line"/>
		</contour>
	</outline>
</glyph>
<glyph name="_58" format="2">
	<unicode hex="013A"/>
	<unicode hex="0044"/>
	<advance width="400"/>
	<outline>
		<component base="cap" yOffset="420"/>
		<component base="cap" yOffset="600"/>
		<contour>
			<point x="0" y="620" type="line"/>
			<point x="0" y="800" type="line"/>
			<point x="400" y="800" type="line"/>
			<point x="400" y="620" type="line"/>
		</contour>
	</outline>
</glyph>
<glyph name="_61" format="2">
	<unicode hex="013D"/>
	<advance width="400"/>
	<outline>
		<component base="cap" yOffset="390"/>
		<component base="cap" yOffset="600"/>
		<contour>
			<point x="0" y="590" type="line"/>
			<point x="0" y="800" type="line"/>
			<point x="400" y="800" type="line"/>
			<point x="400" y="590" type="line"/>
		</contour>
	</outline>
</glyph>
<glyph name="_62" format="2">
	<unicode hex="013E"/>
	<unicode hex="0046"/>
	<advance width="400"/>
	<outline>
		<component base="cap" yOffset="380"/>
		<component base="cap" yOffset="600"/>
		<contour>
			<point x="0" y="580" type="line"/>
			<point x="0" y="800" type="line"/>
			<point x="400" y="800" type="line"/>
			<point x="400" y="580" type="line"/>
		</contour>
	</outline>
</glyph>
<glyph name="_63" format="2">
	<unicode hex="013F"/>
	<advance width="400"/>
	<outline>
		<component base="cap" yOffset="370"/>
		<component base="cap" yOffset="600"/>
		<contour>
			<point x="0" y="570" type="line"/>
			<point x="0" y="800" type="line"/>
			<point x="400" y="800" type="line"/>
			<point x="400" y="570" type="line"/>
		</contour>
	</outline>
</glyph>
<glyph name="_64" format="2">
	<unicode hex="0140"/>
	<unicode hex="0047"/>
	<advance width="400"/>
	<outline>
		<component base="cap" yOffset="360"/>
		<component base="cap" yOffset="600"/>
		<contour>
			<point x="0" y="560" type="line"/>
			<point x="0" y="800" type="line"/>
			<point x="400" y="800" type="line"/>
			<point x="400" y="560" type="line"/>
		</contour>
	</outline>
</glyph>
<glyph name="_66" format="2">
	<unicode hex="0142"/>
	<unicode hex="0048"/>
	<advance width="400"/>
	<outline>
		<component base="cap" yOffset="340"/>
		<component base="cap" yOffset="600"/>
		<contour>
			<point x="0" y="540" type="line"/>
			<point x="0" y="800" type="line"/>
			<point x="400" y="800" type="line"/>
			<point x="400" y="540" type="line"/>
		</contour>
	</outline>
</glyph>
<glyph name="_67" format="2">
	<unicode hex="0143"/>
	<advance width="400"/>
	<outline>
		<component base="cap" yOffset="330"/>
		<component base="cap" yOffset="600"/>
		<contour>
			<point x="0" y="530" type="line"/>
			<point x="0" y="800" type="line"/>
			<point x="400" y="800" type="line"/>
			<point x="400" y="530" type="line"/>
		</contour>
	</outline>
</glyph>
<glyph name="_68" format="2">
	<unicode hex="0144"/>
	<unicode hex="0049"/>
	<advance width="400"/>
	<outline>
		<component base="cap" yOffset="320"/>
		<component base="cap" yOffset="600"/>
		<contour>
			<point x="0" y="520" type="line"/>
			<point x="0" y="800" type="line"/>
			<point x="400" y="800" type="line"/>
			<point x="400" y="520" type="line"/>
		</contour>
	</outline>
</glyph>
<glyph name="_70" format="2">
	<unicode hex="0146"/>
	<unicode hex="0037"/>
	<unicode hex="004A"/>
	<advance width="400"/>
	<outline>
		<component base="cap" yOffset="300"/>
		<component base="cap" yOffset="600"/>
		<contour>
			<point x="0" y="500" type="line"/>
			<point x="0" y="800" type="line"/>
			<point x="400" y="800" type="line"/>
			<point x="400" y="500" type="line"/>
		</contour>
	</outline>
</glyph>
<glyph name="_71" format="2">
	<unicode hex="0147"/>
	<advance width="400"/>
	<outline>
		<component base="cap" yOffset="290"/>
		<component base="cap" yOffset="600"/>
		<contour>
			<point x="0" y="490" type="line"/>
			<point x="0" y="800" type="line"/>
			<point x="400" y="800" type="line"/>
			<point x="400" y="490" type="line"/>
		</contour>
	</outline>
</glyph>
<glyph name="_72" format="2">
	<unicode hex="0148"/>
	<unicode hex="2586"/>
	<unicode hex="004B"/>
	<advance width="400"/>
	<outline>
		<component base="cap" yOffset="280"/>
		<component base="cap" yOffset="600"/>
		<contour>
			<point x="0" y="480" type="line"/>
			<point x="0" y="800" type="line"/>
			<point x="400" y="800" type="line"/>
			<point x="400" y="480" type="line"/>
		</contour>
	</outline>
</glyph>
<glyph name="_75" format="2">
	<unicode hex="014B"/>
	<advance width="400"/>
	<outline>
		<component base="cap" yOffset="250"/>
		<component base="cap" yOffset="600"/>
		<contour>
			<point x="0" y="450" type="line"/>
			<point x="0" y="800" type="line"/>
			<point x="400" y="800" type="line"/>
			<point x="400" y="450" type="line"/>
		</contour>
	</outline>
</glyph>
<glyph name="_76" format="2">
	<unicode hex="014C"/>
	<unicode hex="004D"/>
	<advance width="400"/>
	<outline>
		<component base="cap" yOffset="240"/>
		<component base="cap" yOffset="600"/>
		<contour>
			<point x="0" y="440" type="line"/>
			<point x="0" y="800" type="line"/>
			<point x="400" y="800" type="line"/>
			<point x="400" y="440" type="line"/>
		</contour>
	</outline>
</glyph>
<glyph name="_77" format="2">
	<unicode hex="014D"/>
	<advance width="400"/>
	<outline>
		<component base="cap" yOffset="230"/>
		<component base="cap" yOffset="600"/>
		<contour>
			<point x="0" y="430" type="line"/>
			<point x="0" y="800" type="line"/>
			<point x="400" y="800" type="line"/>
			<point x="400" y="430" type="line"/>
		</contour>
	</outline>
</glyph>
<glyph name="_78" format="2">
	<unicode hex="014E"/>
	<unicode hex="004E"/>
	<advance width="400"/>
	<outline>
		<component base="cap" yOffset="220"/>
		<component base="cap" yOffset="600"/>
		<contour>
			<point x="0" y="420" type="line"/>
			<point x="0" y="800" type="line"/>
			<point x="400" y="800" type="line"/>
			<point x="400" y="420" type="line"/>
		</contour>
	</outline>
</glyph>
<glyph name="_79" format="2">
	<unicode hex="014F"/>
	<advance width="400"/>
	<outline>
		<component base="cap" yOffset="210"/>
		<component base="cap" yOffset="600"/>
		<contour>
			<point x="0" y="410" type="line"/>
			<point x="0" y="800" type="line"/>
			<point x="400" y="800" type="line"/>
			<point x="400" y="410" type="line"/>
		</contour>
	</outline>
</glyph>
<glyph name="_80" format="2">
	<unicode hex="0150"/>
	<unicode hex="0038"/>
	<unicode hex="004F"/>
	<advance width="400"/>
	<outline>
		<component base="cap" yOffset="200"/>
		<component base="cap" yOffset="600"/>
		<contour>
			<point x="0" y="400" type="line"/>
			<point x="0" y="800" type="line"/>
			<point x="400" y="800" type="line"/>
			<point x="400" y="400" type="line"/>
		</contour>
	</outline>
</glyph>
<glyph name="_81" format="2">
	<unicode hex="0151"/>
	<advance width="400"/>
	<outline>
		<component base="cap" yOffset="190"/>
		<component base="cap" yOffset="600"/>
		<contour>
			<point x="0" y="390" type="line"/>
			<point x="0" y="800" type="line"/>
			<point x="400" y="800" type="line"/>
			<point x="400" y="390" type="line"/>
		</contour>
	</outline>
</glyph>
<glyph name="_83" format="2">
	<unicode hex="0153"/>
	<advance width="400"/>
	<outline>
		<component base="cap" yOffset="170"/>
		<component base="cap" yOffset="600"/>
		<contour>
			<point x="0" y="370" type="line"/>
			<point x="0" y="800" type="line"/>
			<point x="400" y="800" type="line"/>
			<point x="400" y="370" type="line"/>
		</contour>
	</outline>
</glyph>
<glyph name="_84" format="2">
	<unicode hex="0154"/>
	<unicode hex="0051"/>
	<advance width="400"/>
	<outline>
		<component base="cap" yOffset="160"/>
		<component base="cap" yOffset="600"/>
		<contour>
			<point x="0" y="360" type="line"/>
			<point x="0" y="800" type="line"/>
			<point x="400" y="800" type="line"/>
			<point x="400" y="360" type="line"/>
		</contour>
	</outline>
</glyph>
<glyph name="_86" format="2">
	<unicode hex="0156"/>
	<unicode hex="2587"/>
	<unicode hex="0052"/>
	<advance width="400"/>
	<outline>
		<component base="cap" yOffset="140"/>
		<component base="cap" yOffset="600"/>
		<contour>
			<point x="0" y="340" type="line"/>
			<point x="0" y="800" type="line"/>
			<point x="400" y="800" type="line"/>
			<point x="400" y="340" type="line"/>
		</contour>
	</outline>
</glyph>
<glyph name="_87" format="2">
	<unicode hex="0157"/>
	<advance width="400"/>
	<outline>
		<component base="cap" yOffset="130"/>
		<component base="cap" yOffset="600"/>
		<contour>
			<point x="0" y="330" type="line"/>
			<point x="0" y="800" type="line"/>
			<point x="400" y="800" type="line"/>
			<point x="400" y="330" type="line"/>
		</contour>
	</outline>
</glyph>
<glyph name="_88" format="2">
	<unicode hex="0158"/>
	<unicode hex="0053"/>
	<advance width="400"/>
	<outline>
		<component base="cap" yOffset="120"/>
		<component base="cap" yOffset="600"/>
		<contour>
			<point x="0" y="320" type="line"/>
			<point x="0" y="800" type="line"/>
			<point x="400" y="800" type="line"/>
			<point x="400" y="320" type="line"/>
		</contour>
	</outline>
</glyph>
<glyph name="_89" format="2">
	<unicode hex="0159"/>
	<advance width="400"/>
	<outline>
		<component base="cap" yOffset="110"/>
		<component base="cap" yOffset="600"/>
		<contour>
			<point x="0" y="310" type="line"/>
			<point x="0" y="800" type="line"/>
			<point x="400" y="800" type="line"/>
			<point x="400" y="310" type="line"/>
		</contour>
	</outline>
</glyph>
<glyph name="_91" format="2">
	<unicode hex="015B"/>
	<advance width="400"/>
	<outline>
		<component base="cap" yOffset="90"/>
		<component base="cap" yOffset="600"/>
		<contour>
			<point x="0" y="290" type="line"/>
			<point x="0" y="800" type="line"/>
			<point x="400" y="800" type="line"/>
			<point x="400" y="290" type="line"/>
		</contour>
	</outline>
</glyph>
<glyph name="_92" format="2">
	<unicode hex="015C"/>
	<unicode hex="0055"/>
	<advance width="400"/>
	<outline>
		<component base="cap" yOffset="80"/>
		<component base="cap" yOffset="600"/>
		<contour>
			<point x="0" y="280" type="line"/>
			<point x="0" y="800" type="line"/>
			<point x="400" y="800" type="line"/>
			<point x="400" y="280" type="line"/>
		</contour>
	</outline>
</glyph>
<glyph name="_93" format="2">
	<unicode hex="015D"/>
	<advance width="400"/>
	<outline>
		<component base="cap" yOffset="70"/>
		<component base="cap" yOffset="600"/>
		<contour>
			<point x="0" y="270" type="line"/>
			<point x="0" y="800" type="line"/>
			<point x="400" y="800" type="line"/>
			<point x="400" y="270" type="line"/>
		</contour>
	</outline>
</glyph>
<glyph name="_95" format="2">
	<unicode hex="015F"/>
	<advance width="400"/>
	<outline>
		<component base="cap" yOffset="50"/>
		<component base="cap" yOffset="600"/>
		<contour>
			<point x="0" y="250" type="line"/>
			<point x="0" y="800" type="line"/>
			<point x="400" y="800" type="line"/>
			<point x="400" y="250" type="line"/>
		</contour>
	</outline>
</glyph>
<glyph name="_96" format="2">
	<unicode hex="0160"/>
	<unicode hex="0057"/>
	<advance width="400"/>
	<outline>
		<component base="cap" yOffset="40"/>
		<component base="cap" yOffset="600"/>
		<contour>
			<point x="0" y="240" type="line"/>
			<point x="0" y="800" type="line"/>
			<point x="400" y="800" type="line"/>
			<point x="400" y="240" type="line"/>
		</contour>
	</outline>
</glyph>
<glyph name="_97" format="2">
	<unicode hex="0161"/>
	<advance width="400"/>
	<outline>
		<component base="cap" yOffset="30"/>
		<component base="cap" yOffset="600"/>
		<contour>
			<point x="0" y="230" type="line"/>
			<point x="0" y="800" type="line"/>
			<point x="400" y="800" type="line"/>
			<point x="400" y="230" type="line"/>
		</contour>
	</outline>
</glyph>
<glyph name="_98" format="2">
	<unicode hex="0162"/>
	<unicode hex="0058"/>
	<advance width="400"/>
	<outline>
		<component base="cap" yOffset="20"/>
		<component base="cap" yOffset="600"/>
		<contour>
			<point x="0" y="220" type="line"/>
			<point x="0" y="800" type="line"/>
			<point x="400" y="800" type="line"/>
			<point x="400" y="220" type="line"/>
		</contour>
	</outline>
</glyph>
<glyph name="_99" format="2">
	<unicode hex="0163"/>
	<unicode hex="0059"/>
	<advance width="400"/>
	<outline>
		<component base="cap" yOffset="10"/>
		<component base="cap" yOffset="600"/>
		<contour>
			<point x="0" y="210" type="line"/>
			<point x="0" y="800" type="line"/>
			<point x="400" y="800" type="line"/>
			<point x="400" y="210" type="line"/>
		</contour>
	</outline>
</glyph>
<glyph name="_101" format="2">
	<unicode hex="0165"/>
	<advance width="400"/>
	<outline>
		<component base="cap" yOffset="-10"/>
		<component base="cap" yOffset="600"/>
		<contour>
			<point x="0" y="190" type="line"/>
			<point x="0" y="800" type="line"/>
			<point x="400" y="800" type="line"/>
			<point x="400" y="190" type="line"/>
		</contour>
	</outline>
</glyph>
<glyph name="_102" format="2">
	<unicode hex="0166"/>
	<advance width="400"/>
	<outline>
		<component base="cap" yOffset="-20"/>
		<component base="cap" yOffset="600"/>
		<contour>
			<point x="0" y="180" type="line"/>
			<point x="0" y="800" type="line"/>
			<point x="400" y="800" type="line"/>
			<point x="400" y="180" type="line"/>
		</contour>
	</outline>
</glyph>
<glyph name="_104" format="2">
	<unicode hex="0168"/>
	<advance width="400"/>
	<outline>
		<component base="cap" yOffset="-40"/>
		<component base="cap" yOffset="600"/>
		<contour>
			<point x="0" y="160" type="line"/>
			<point x="0" y="800" type="line"/>
			<point x="400" y="800" type="line"/>
			<point x="400" y="160" type="line"/>
		</contour>
	</outline>
</glyph>
<glyph name="_105" format="2">
	<unicode hex="0169"/>
	<advance width="400"/>
	<outline>
		<component base="cap" yOffset="-50"/>
		<component base="cap" yOffset="600"/>
		<contour>
			<point x="0" y="150" type="line"/>
			<point x="0" y="800" type="line"/>
			<point x="400" y="800" type="line"/>
			<point x="400" y="150" type="line"/>
		</contour>
	</outline>
</glyph>
<glyph name="_106" format="2">
	<unicode hex="016A"/>
	<advance width="400"/>
	<outline>
		<component base="cap" yOffset="-60"/>
		<component base="cap" yOffset="600"/>
		<contour>
			<point x="0" y="140" type="line"/>
			<point x="0" y="800" type="line"/>
			<point x="400" y="800" type="line"/>
			<point x="400" y="140" type="line"/>
		</contour>
	</outline>
</glyph>
<glyph name="_107" format="2">
	<unicode hex="016B"/>
	<advance width="400"/>
	<outline>
		<component base="cap" yOffset="-70"/>
		<component base="cap" yOffset="600"/>
		<contour>
			<point x="0" y="130" type="line"/>
			<point x="0" y="800" type="line"/>
			<point x="400" y="800" type="line"/>
			<point x="400" y="130" type="line"/>
		</contour>
	</outline>
</glyph>
<glyph name="_108" format="2">
	<unicode hex="016C"/>
	<advance width="400"/>
	<outline>
		<component base="cap" yOffset="-80"/>
		<component base="cap" yOffset="600"/>
		<contour>
			<point x="0" y="120" type="line"/>
			<point x="0" y="800" type="line"/>
			<point x="400" y="800" type="line"/>
			<point x="400" y="120" type="line"/>
		</contour>
	</outline>
</glyph>
<glyph name="_109" format="2">
	<unicode hex="016D"/>
	<advance width="400"/>
	<outline>
		<component base="cap" yOffset="-90"/>
		<component base="cap" yOffset="600"/>
		<contour>
			<point x="0" y="110" type="line"/>
			<point x="0" y="800" type="line"/>
			<point x="400" y="800" type="line"/>
			<point x="400" y="110" type="line"/>
		</contour>
	</outline>
</glyph>
<glyph name="_110" format="2">
	<unicode hex="016E"/>
	<advance width="400"/>
	<outline>
		<component base="cap" yOffset="-100"/>
		<component base="cap" yOffset="600"/>
		<contour>
			<point x="0" y="100" type="line"/>
			<point x="0" y="800" type="line"/>
			<point x="400" y="800" type="line"/>
			<point x="400" y="100" type="line"/>
		</contour>
	</outline>
</glyph>
<glyph name="_111" format="2">
	<unicode hex="016F"/>
	<advance width="400"/>
	<outline>
		<component base="cap" yOffset="-110"/>
		<component base="cap" yOffset="600"/>
		<contour>
			<point x="0" y="90" type="line"/>
			<point x="0" y="800" type="line"/>
			<point x="400" y="800" type="line"/>
			<point x="400" y="90" type="line"/>
		</contour>
	</outline>
</glyph>
<glyph name="_112" format="2">
	<unicode hex="0170"/>
	<advance width="400"/>
	<outline>
		<component base="cap" yOffset="-120"/>
		<component base="cap" yOffset="600"/>
		<contour>
			<point x="0" y="80" type="line"/>
			<point x="0" y="800" type="line"/>
			<point x="400" y="800" type="line"/>
			<point x="400" y="80" type="line"/>
		</contour>
	</outline>
</glyph>
<glyph name="_113" format="2">
	<unicode hex="0171"/>
	<advance width="400"/>
	<outline>
		<component base="cap" yOffset="-130"/>
		<component base="cap" yOffset="600"/>
		<contour>
			<point x="0" y="70" type="line"/>
			<point x="0" y="800" type="line"/>
			<point x="400" y="800" type="line"/>
			<point x="400" y="70" type="line"/>
		</contour>
	</outline>
</glyph>
<glyph name="_114" format="2">
	<unicode hex="0172"/>
	<advance width="400"/>
	<outline>
		<component base="cap" yOffset="-140"/>
		<component base="cap" yOffset="600"/>
		<contour>
			<point x="0" y="60" type="line"/>
			<point x="0" y="800" type="line"/>
			<point x="400" y="800" type="line"/>
			<point x="400" y="60" type="line"/>
		</contour>
	</outline>
</glyph>
<glyph name="_115" format="2">
	<unicode hex="0173"/>
	<advance width="400"/>
	<outline>
		<component base="cap" yOffset="-150"/>
		<component base="cap" yOffset="600"/>
		<contour>
			<point x="0" y="50" type="line"/>
			<point x="0" y="800" type="line"/>
			<point x="400" y="800" type="line"/>
			<point x="400" y="50" type="line"/>
		</contour>
	</outline>
</glyph>
<glyph name="_116" format="2">
	<unicode hex="0174"/>
	<advance width="400"/>
	<outline>
		<component base="cap" yOffset="-160"/>
		<component base="cap" yOffset="600"/>
		<contour>
			<point x="0" y="40" type="line"/>
			<point x="0" y="800" type="line"/>
			<point x="400" y="800" type="line"/>
			<point x="400" y="40" type="line"/>
		</contour>
	</outline>
</glyph>
<glyph name="_117" format="2">
	<unicode hex="0175"/>
	<advance width="400"/>
	<outline>
		<component base="cap" yOffset="-170"/>
		<component base="cap" yOffset="600"/>
		<contour>
			<point x="0" y="30" type="line"/>
			<point x="0" y="800" type="line"/>
			<point x="400" y="800" type="line"/>
			<point x="400" y="30" type="line"/>
		</contour>
	</outline>
</glyph>
<glyph name="_118" format="2">
	<unicode hex="0176"/>
	<advance width="400"/>
	<outline>
		<component base="cap" yOffset="-180"/>
		<component base="cap" yOffset="600"/>
		<contour>
			<point x="0" y="20" type="line"/>
			<point x="0" y="800" type="line"/>
			<point x="400" y="800" type="line"/>
			<point x="400" y="20" type="line"/>
		</contour>
	</outline>
</glyph>
<glyph name="_120" format="2">
	<unicode hex="0178"/>
	<advance width="400"/>
	<outline>
		<component base="cap" yOffset="-200"/>
		<component base="cap" yOffset="600"/>
		<contour>
			<point x="0" y="0" type="line"/>
			<point x="0" y="800" type="line"/>
			<point x="400" y="800" type="line"/>
			<point x="400" y="0" type="line"/>
		</contour>
	</outline>
</glyph>
<glyph name="_121" format="2">
	<unicode hex="0179"/>
	<advance width="400"/>
	<outline>
		<component base="cap" yOffset="-210"/>
		<component base="cap" yOffset="600"/>
		<contour>
			<point x="0" y="-10" type="line"/>
			<point x="0" y="800" type="line"/>
			<point x="400" y="800" type="line"/>
			<point x="400" y="-10" type="line"/>
		</contour>
	</outline>
</glyph>
<glyph name="_122" format="2">
	<unicode hex="017A"/>
	<advance width="400"/>
	<outline>
		<component base="cap" yOffset="-220"/>
		<component base="cap" yOffset="600"/>
		<contour>
			<point x="0" y="-20" type="line"/>
			<point x="0" y="800" type="line"/>
			<point x="400" y="800" type="line"/>
			<point x="400" y="-20" type="line"/>
		</contour>
	</outline>
</glyph>
<glyph name="_123" format="2">
	<unicode hex="017B"/>
	<advance width="400"/>
	<outline>
		<component base="cap" yOffset="-230"/>
		<component base="cap" yOffset="600"/>
		<contour>
			<point x="0" y="-30" type="line"/>
			<point x="0" y="800" type="line"/>
			<point x="400" y="800" type="line"/>
			<point x="400" y="-30" type="line"/>
		</contour>
	</outline>
</glyph>
<glyph name="_125" format="2">
	<unicode hex="017D"/>
	<advance width="400"/>
	<outline>
		<component base="cap" yOffset="-250"/>
		<component base="cap" yOffset="600"/>
		<contour>
			<point x="0" y="-50" type="line"/>
			<point x="0" y="800" type="line"/>
			<point x="400" y="800" type="line"/>
			<point x="400" y="-50" type="line"/>
		</contour>
	</outline>
</glyph>
<glyph name="_127" format="2">
	<unicode hex="017F"/>
	<advance width="400"/>
	<outline>
		<component base="cap" yOffset="-270"/>
		<component base="cap" yOffset="600"/>
		<contour>
			<point x="0" y="-70" type="line"/>
			<point x="0" y="800" type="line"/>
			<point x="400" y="800" type="line"/>
			<point x="400" y="-70" type="line"/>
		</contour>
	</outline>
</glyph>
<glyph name="_12.clip" format="2">
	<advance width="400"/>
	<outline>
		<contour>
			<point x="0" y="973"/>
			<point x="26" y="1000"/>
			<point x="60" y="1000" type="curve" smooth="yes"/>
			<point x="340" y="1000" type="line"/>
			<point x="373" y="1000"/>
			<point x="400" y="973"/>
			<point x="400" y="940" type="curve" smooth="yes"/>
			<point x="400" y="940" type="line"/>
			<point x="400" y="907"/>
			<point x="373" y="880"/>
			<point x="340" y="880" type="curve" smooth="yes"/>
			<point x="60" y="880" type="line"/>
			<point x="26" y="880"/>
			<point x="0" y="907"/>
			<point x="0" y="940" type="curve" smooth="yes"/>
			<point x="0" y="940" type="line"/>
		</contour>
	</outline>
</glyph>
<glyph name="_15.clip" format="2">
	<advance width="400"/>
	<outline>
		<contour>
			<point x="0" y="966.25"/>
			<point x="33.75" y="1000"/>
			<point x="75" y="1000" type="curve" smooth="yes"/>
			<point x="325" y="1000" type="line"/>
			<point x="366.25" y="1000"/>
			<point x="400" y="966.25"/>
			<point x="400" y="925" type="curve" smooth="yes"/>
			<point x="400" y="925" type="line"/>
			<point x="400" y="883.75"/>
			<point x="366.25" y="850"/>
			<point x="325" y="850" type="curve" smooth="yes"/>
			<point x="75" y="850" type="line"/>
			<point x="33.75" y="850"/>
			<point x="0" y="883.75"/>
			<point x="0" y="925" type="curve" smooth="yes"/>
			<point x="0" y="925" type="line"/>
		</contour>
	</outline>
</glyph>
<glyph name="_19.clip" format="2">
	<advance width="400"/>
	<outline>
		<contour>
			<point x="0" y="957.25"/>
			<point x="42.75" y="1000"/>
			<point x="95" y="1000" type="curve" smooth="yes"/>
			<point x="305" y="1000" type="line"/>
			<point x="357.25" y="1000"/>
			<point x="400" y="957.25"/>
			<point x="400" y="905" type="curve" smooth="yes"/>
			<point x="400" y="905" type="line"/>
			<point x="400" y="852.75"/>
			<point x="357.25" y="810"/>
			<point x="305" y="810" type="curve" smooth="yes"/>
			<point x="95" y="810" type="line"/>
			<point x="42.75" y="810"/>
			<point x="0" y="852.75"/>
			<point x="0" y="905" type="curve" smooth="yes"/>
			<point x="0" y="905" type="line"/>
		</contour>
	</outline>
</glyph>
<glyph name="_25.clip" format="2">
	<advance width="400"/>
	<outline>
		<contour>
			<point x="0" y="943.75"/>
			<point x="56.25" y="1000"/>
			<point x="125" y="1000" type="curve" smooth="yes"/>
			<point x="275" y="1000" type="line"/>
			<point x="343.75" y="1000"/>
			<point x="400" y="943.75"/>
			<point x="400" y="875" type="curve" smooth="yes"/>
			<point x="400" y="875" type="line"/>
			<point x="400" y="806.25"/>
			<point x="343.75" y="750"/>
			<point x="275" y="750" type="curve" smooth="yes"/>
			<point x="125" y="750" type="line"/>
			<point x="56.25" y="750"/>
			<point x="0" y="806.25"/>
			<point x="0" y="875" type="curve" smooth="yes"/>
			<point x="0" y="875" type="line"/>
		</contour>
	</outline>
</glyph>
<glyph name="_26.clip" format="2">
	<advance width="400"/>
	<outline>
		<contour>
			<point x="0" y="941.5"/>
			<point x="58.5" y="1000"/>
			<point x="130" y="1000" type="curve" smooth="yes"/>
			<point x="270" y="1000" type="line"/>
			<point x="341.5" y="1000"/>
			<point x="400" y="941.5"/>
			<point x="400" y="870" type="curve" smooth="yes"/>
			<point x="400" y="870" type="line"/>
			<point x="400" y="798.5"/>
			<point x="341.5" y="740"/>
			<point x="270" y="740" type="curve" smooth="yes"/>
			<point x="130" y="740" type="line"/>
			<point x="58.5" y="740"/>
			<point x="0" y="798.5"/>
			<point x="0" y="870" type="curve" smooth="yes"/>
			<point x="0" y="870" type="line"/>
		</contour>
	</outline>
</glyph>
<glyph name="_27.clip" format="2">
	<advance width="400"/>
	<outline>
		<contour>
			<point x="0" y="939.25"/>
			<point x="60.75" y="1000"/>
			<point x="135" y="1000" type="curve" smooth="yes"/>
			<point x="265" y="1000" type="line"/>
			<point x="339.25" y="1000"/>
			<point x="400" y="939.25"/>
			<point x="400" y="865" type="curve" smooth="yes"/>
			<point x="400" y="865" type="line"/>
			<point x="400" y="790.75"/>
			<point x="339.25" y="730"/>
			<point x="265" y="730" type="curve" smooth="yes"/>
			<point x="135" y="730" type="line"/>
			<point x="60.75" y="730"/>
			<point x="0" y="790.75"/>
			<point x="0" y="865" type="curve" smooth="yes"/>
			<point x="0" y="865" type="line"/>
		</contour>
	</outline>
</glyph>
<glyph name="_29.clip" format="2">
	<advance width="400"/>
	<outline>
		<contour>
			<point x="0" y="934.75"/>
			<point x="65.25" y="1000"/>
			<point x="145" y="1000" type="curve" smooth="yes"/>
			<point x="255" y="1000" type="line"/>
			<point x="334.75" y="1000"/>
			<point x="400" y="934.75"/>
			<point x="400" y="855" type="curve" smooth="yes"/>
			<point x="400" y="855" type="line"/>
			<point x="400" y="775.25"/>
			<point x="334.75" y="710"/>
			<point x="255" y="710" type="curve" smooth="yes"/>
			<point x="145" y="710" type="line"/>
			<point x="65.25" y="710"/>
			<point x="0" y="775.25"/>
			<point x="0" y="855" type="curve" smooth="yes"/>
			<point x="0" y="855" type="line"/>
		</contour>
	</outline>
</glyph>
<glyph name="_30.clip" format="2">
	<advance width="400"/>
	<outline>
		<contour>
			<point x="0" y="932.5"/>
			<point x="67.5" y="1000"/>
			<point x="150" y="1000" type="curve" smooth="yes"/>
			<point x="250" y="1000" type="line"/>
			<point x="332.5" y="1000"/>
			<point x="400" y="932.5"/>
			<point x="400" y="850" type="curve" smooth="yes"/>
			<point x="400" y="850" type="line"/>
			<point x="400" y="767.5"/>
			<point x="332.5" y="700"/>
			<point x="250" y="700" type="curve" smooth="yes"/>
			<point x="150" y="700" type="line"/>
			<point x="67.5" y="700"/>
			<point x="0" y="767.5"/>
			<point x="0" y="850" type="curve" smooth="yes"/>
			<point x="0" y="850" type="line"/>
		</contour>
	</outline>
</glyph>
<glyph name="_31.clip" format="2">
	<advance width="400"/>
	<outline>
		<contour>
			<point x="0" y="930.25"/>
			<point x="69.75" y="1000"/>
			<point x="155" y="1000" type="curve" smooth="yes"/>
			<point x="245" y="1000" type="line"/>
			<point x="330.25" y="1000"/>
			<point x="400" y="930.25"/>
			<point x="400" y="845" type="curve" smooth="yes"/>
			<point x="400" y="845" type="line"/>
			<point x="400" y="759.75"/>
			<point x="330.25" y="690"/>
			<point x="245" y="690" type="curve" smooth="yes"/>
			<point x="155" y="690" type="line"/>
			<point x="69.75" y="690"/>
			<point x="0" y="759.75"/>
			<point x="0" y="845" type="curve" smooth="yes"/>
			<point x="0" y="845" type="line"/>
		</contour>
	</outline>
</glyph>
<glyph name="_32.clip" format="2">
	<advance width="400"/>
	<outline>
		<contour>
			<point x="0" y="928"/>
			<point x="72" y="1000"/>
			<point x="160" y="1000" type="curve" smooth="yes"/>
			<point x="240" y="1000" type="line"/>
			<point x="328" y="1000"/>
			<point x="400" y="928"/>
			<point x="400" y="840" type="curve" smooth="yes"/>
			<point x="400" y="840" type="line"/>
			<point x="400" y="752"/>
			<point x="328" y="680"/>
			<point x="240" y="680" type="curve" smooth="yes"/>
			<point x="160" y="680" type="line"/>
			<point x="72" y="680"/>
			<point x="0" y="752"/>
			<point x="0" y="840" type="curve" smooth="yes"/>
			<point x="0" y="840" type="line"/>
		</contour>
	</outline>
</glyph>
<glyph name="_33.clip" format="2">
	<advance width="400"/>
	<outline>
		<contour>
			<point x="0" y="925.75"/>
			<point x="74.25" y="1000"/>
			<point x="165" y="1000" type="curve" smooth="yes"/>
			<point x="235" y="1000" type="line"/>
			<point x="325.75" y="1000"/>
			<point x="400" y="925.75"/>
			<point x="400" y="835" type="curve" smooth="yes"/>
			<point x="400" y="835" type="line"/>
			<point x="400" y="744.25"/>
			<point x="325.75" y="670"/>
			<point x="235" y="670" type="curve" smooth="yes"/>
			<point x="165" y="670" type="line"/>
			<point x="74.25" y="670"/>
			<point x="0" y="744.25"/>
			<point x="0" y="835" type="curve" smooth="yes"/>
			<point x="0" y="835" type="line"/>
		</contour>
	</outline>
</glyph>
<glyph name="_34.clip" format="2">
	<advance width="400"/>
	<outline>
		<contour>
			<point x="0" y="923.5"/>
			<point x="76.5" y="1000"/>
			<point x="170" y="1000" type="curve" smooth="yes"/>
			<point x="230" y="1000" type="line"/>
			<point x="323.5" y="1000"/>
			<point x="400" y="923.5"/>
			<point x="400" y="830" type="curve" smooth="yes"/>
			<point x="400" y="830" type="line"/>
			<point x="400" y="736.5"/>
			<point x="323.5" y="660"/>
			<point x="230" y="660" type="curve" smooth="yes"/>
			<point x="170" y="660" type="line"/>
			<point x="76.5" y="660"/>
			<point x="0" y="736.5"/>
			<point x="0" y="830" type="curve" smooth="yes"/>
			<point x="0" y="830" type="line"/>
		</contour>
	</outline>
</glyph>
<glyph name="_35.clip" format="2">
	<advance width="400"/>
	<outline>
		<contour>
			<point x="0" y="921.25"/>
			<point x="78.75" y="1000"/>
			<point x="175" y="1000" type="curve" smooth="yes"/>
			<point x="225" y="1000" type="line"/>
			<point x="321.25" y="1000"/>
			<point x="400" y="921.25"/>
			<point x="400" y="825" type="curve" smooth="yes"/>
			<point x="400" y="825" type="line"/>
			<point x="400" y="728.75"/>
			<point x="321.25" y="650"/>
			<point x="225" y="650" type="curve" smooth="yes"/>
			<point x="175" y="650" type="line"/>
			<point x="78.75" y="650"/>
			<point x="0" y="728.75"/>
			<point x="0" y="825" type="curve" smooth="yes"/>
			<point x="0" y="825" type="line"/>
		</contour>
	</outline>
</glyph>
<glyph name="_36.clip" format="2">
	<advance width="400"/>
	<outline>
		<contour>
			<point x="0" y="919"/>
			<point x="80" y="1000"/>
			<point x="180" y="1000" type="curve" smooth="yes"/>
			<point x="220" y="1000" type="line"/>
			<point x="319" y="1000"/>
			<point x="400" y="919"/>
			<point x="400" y="820" type="curve" smooth="yes"/>
			<point x="400" y="820" type="line"/>
			<point x="400" y="721"/>
			<point x="319" y="640"/>
			<point x="220" y="640" type="curve" smooth="yes"/>
			<point x="180" y="640" type="line"/>
			<point x="80" y="640"/>
			<point x="0" y="721"/>
			<point x="0" y="820" type="curve" smooth="yes"/>
			<point x="0" y="820" type="line"/>
		</contour>
	</outline>
</glyph>
<glyph name="_37.clip" format="2">
	<advance width="400"/>
	<outline>
		<contour>
			<point x="0" y="916.75"/>
			<point x="83.25" y="1000"/>
			<point x="185" y="1000" type="curve" smooth="yes"/>
			<point x="215" y="1000" type="line"/>
			<point x="316.75" y="1000"/>
			<point x="400" y="916.75"/>
			<point x="400" y="815" type="curve" smooth="yes"/>
			<point x="400" y="815" type="line"/>
			<point x="400" y="713.25"/>
			<point x="316.75" y="630"/>
			<point x="215" y="630" type="curve" smooth="yes"/>
			<point x="185" y="630" type="line"/>
			<point x="83.25" y="630"/>
			<point x="0" y="713.25"/>
			<point x="0" y="815" type="curve" smooth="yes"/>
			<point x="0" y="815" type="line"/>
		</contour>
	</outline>
</glyph>
<glyph name="_38.clip" format="2">
	<advance width="400"/>
	<outline>
		<contour>
			<point x="0" y="914.5"/>
			<point x="85.5" y="1000"/>
			<point x="190" y="1000" type="curve" smooth="yes"/>
			<point x="210" y="1000" type="line"/>
			<point x="314.5" y="1000"/>
			<point x="400" y="914.5"/>
			<point x="400" y="810" type="curve" smooth="yes"/>
			<point x="400" y="810" type="line"/>
			<point x="400" y="705.5"/>
			<point x="314.5" y="620"/>
			<point x="210" y="620" type="curve" smooth="yes"/>
			<point x="190" y="620" type="line"/>
			<point x="85.5" y="620"/>
			<point x="0" y="705.5"/>
			<point x="0" y="810" type="curve" smooth="yes"/>
			<point x="0" y="810" type="line"/>
		</contour>
	</outline>
</glyph>
<glyph name="_4.clip" format="2">
	<advance width="400"/>
	<outline>
		<contour>
			<point x="0" y="991"/>
			<point x="9" y="1000"/>
			<point x="20" y="1000" type="curve" smooth="yes"/>
			<point x="380" y="1000" type="line"/>
			<point x="391" y="1000"/>
			<point x="400" y="991"/>
			<point x="400" y="980" type="curve" smooth="yes"/>
			<point x="400" y="980" type="line"/>
			<point x="400" y="969"/>
			<point x="391" y="960"/>
			<point x="380" y="960" type="curve" smooth="yes"/>
			<point x="20" y="960" type="line"/>
			<point x="9" y="960"/>
			<point x="0" y="969"/>
			<point x="0" y="980" type="curve" smooth="yes"/>
			<point x="0" y="980" type="line"/>
		</contour>
	</outline>
</glyph>
<glyph name="_8.clip" format="2">
	<advance width="400"/>
	<outline>
		<contour>
			<point x="0" y="982"/>
			<point x="18" y="1000"/>
			<point x="40" y="1000" type="curve" smooth="yes"/>
			<point x="360" y="1000" type="line"/>
			<point x="382" y="1000"/>
			<point x="400" y="982"/>
			<point x="400" y="960" type="curve" smooth="yes"/>
			<point x="400" y="960" type="line"/>
			<point x="400" y="938"/>
			<point x="382" y="920"/>
			<point x="360" y="920" type="curve" smooth="yes"/>
			<point x="40" y="920" type="line"/>
			<point x="18" y="920"/>
			<point x="0" y="938"/>
			<point x="0" y="960" type="curve" smooth="yes"/>
			<point x="0" y="960" type="line"/>
		</contour>
	</outline>
</glyph>
